<mxfile host="app.diagrams.net" modified="2023-06-14T01:48:38.780Z" agent="Mozilla/5.0 (Windows NT 10.0; Win64; x64) AppleWebKit/537.36 (KHTML, like Gecko) Chrome/114.0.0.0 Safari/537.36" version="21.3.8" etag="w7-_cCCg4-IP2bogFlW9" type="github">
  <diagram name="Page-1" id="GK2jCqF-jwEU3etdWW5d">
    <mxGraphModel>
      <root>
        <mxCell id="0" />
        <mxCell id="1" parent="0" />
      </root>
    </mxGraphModel>
  </diagram>
</mxfile>
